<svg width="63" height="63" viewBox="0 0 63 63" fill="none" xmlns="http://www.w3.org/2000/svg">
<path fill-rule="evenodd" clip-rule="evenodd" d="M62.966 30.0219C62.6794 23.9245 60.6275 18.0417 57.0596 13.0889C53.4917 8.13606 48.5616 4.32655 42.8689 2.12361C37.1761 -0.0793246 30.9659 -0.580786 24.9934 0.680209C19.021 1.9412 13.5435 4.91033 9.22721 9.22653C4.91086 13.5427 1.94157 19.0201 0.680395 24.9925C-0.580781 30.9649 -0.0795085 37.1751 2.12326 42.8679C4.32603 48.5608 8.13539 53.4909 13.0881 57.059C18.0409 60.627 23.9236 62.6792 30.021 62.9659C34.3987 63.1587 38.7685 62.4385 42.8528 60.8511C46.9371 59.2637 50.6464 56.8439 53.7449 53.7455C56.8434 50.6471 59.2633 46.9379 60.8508 42.8536C62.4383 38.7694 63.1586 34.3996 62.966 30.0219ZM12.655 25.9719C12.4242 25.8158 12.2513 25.588 12.1631 25.3237C12.0749 25.0594 12.0763 24.7734 12.167 24.5099C13.4245 21.0255 15.6012 17.9461 18.4664 15.598C21.3316 13.2499 24.7786 11.7206 28.4423 11.1721C32.1059 10.6236 35.8496 11.0764 39.2769 12.4825C42.7041 13.8885 45.6872 16.1955 47.91 19.1589C49.41 21.1589 47.377 23.2209 44.532 25.3589C41.812 27.4049 39.109 29.0699 39.109 29.0699C38.3015 29.489 37.3941 29.6772 36.4865 29.6138C35.579 29.5505 34.7065 29.2381 33.965 28.7109L29.623 25.6249C28.8814 25.0985 28.0091 24.7865 27.1018 24.7234C26.1945 24.6602 25.2874 24.8483 24.48 25.2669L19.75 27.7199C18.9425 28.138 18.0355 28.3256 17.1284 28.2621C16.2214 28.1985 15.3493 27.8864 14.608 27.3599L12.663 25.9789L12.655 25.9719ZM50.834 38.4899C49.5763 41.9744 47.3994 45.0539 44.5341 47.402C41.6687 49.7501 38.2216 51.2794 34.5579 51.828C30.8942 52.3765 27.1503 51.9239 23.7229 50.518C20.2955 49.1121 17.3122 46.8053 15.089 43.8419C13.589 41.8419 15.623 39.7789 18.467 37.6419C21.187 35.5939 23.891 33.9289 23.891 33.9289C24.6986 33.5104 25.6059 33.3226 26.5133 33.3863C27.4206 33.45 28.2928 33.7627 29.034 34.2899L33.377 37.3749C34.1185 37.9014 34.9907 38.2135 35.898 38.277C36.8052 38.3405 37.7123 38.153 38.52 37.7349L43.251 35.2839C44.0584 34.8656 44.9654 34.6778 45.8724 34.7412C46.7795 34.8045 47.6516 35.1165 48.393 35.6429L50.336 37.0239C50.3391 37.0263 50.3425 37.0283 50.346 37.0299C50.5767 37.1863 50.7495 37.4144 50.8377 37.6788C50.9259 37.9432 50.9246 38.2293 50.834 38.4929V38.4899Z" fill="#55C2D8"/>
</svg>
